<?xml version="1.0" standalone="no"?>
<!DOCTYPE svg PUBLIC "-//W3C//DTD SVG 20010904//EN"
 "http://www.w3.org/TR/2001/REC-SVG-20010904/DTD/svg10.dtd">
<svg version="1.0" xmlns="http://www.w3.org/2000/svg"
 width="200.000000pt" height="200.000000pt" viewBox="0 0 200.000000 200.000000"
 preserveAspectRatio="xMidYMid meet">

<g transform="translate(0.000000,200.000000) scale(0.100000,-0.100000)"
fill="#000000" stroke="none">
<path d="M656 1079 c-332 -305 -337 -312 -299 -357 10 -12 153 -145 317 -296
315 -290 330 -301 369 -258 40 44 36 48 -333 387 -118 109 -216 201 -218 204
-1 3 124 122 278 264 242 223 280 262 280 287 0 34 -23 60 -54 60 -17 0 -116
-85 -340 -291z"/>
</g>
</svg>
